<svg xmlns="http://www.w3.org/2000/svg" width="65" height="52"><path d="M1.75 0A1.735 1.735 0 110 1.73 1.741 1.741 0 011.75 0zm12.3 0a1.735 1.735 0 11-1.77 1.73A1.75 1.75 0 0114.05 0zm12.29 0a1.735 1.735 0 11-1.75 1.73A1.741 1.741 0 0126.34 0zm12.32 0a1.735 1.735 0 11-1.75 1.73A1.748 1.748 0 0138.66 0zm12.29 0a1.735 1.735 0 11-1.76 1.73A1.752 1.752 0 0150.95 0zm12.3 0a1.735 1.735 0 11-1.75 1.73A1.741 1.741 0 0163.25 0zM1.75 12.12A1.735 1.735 0 110 13.86a1.743 1.743 0 011.75-1.74zm12.3 0a1.735 1.735 0 11-1.77 1.74 1.752 1.752 0 011.77-1.74zm12.29 0a1.735 1.735 0 11-1.75 1.74 1.743 1.743 0 011.75-1.74zm12.32 0a1.735 1.735 0 11-1.75 1.74 1.75 1.75 0 011.75-1.74zm12.29 0a1.735 1.735 0 11-1.76 1.74 1.754 1.754 0 011.76-1.74zm12.3 0a1.735 1.735 0 11-1.75 1.74 1.743 1.743 0 011.75-1.74zM1.75 24.28A1.72 1.72 0 110 26a1.733 1.733 0 011.75-1.72zm12.3 0A1.721 1.721 0 1112.28 26a1.742 1.742 0 011.77-1.72zm12.29 0A1.72 1.72 0 1124.59 26a1.733 1.733 0 011.75-1.72zm12.32 0A1.72 1.72 0 1136.91 26a1.739 1.739 0 011.75-1.72zm12.29 0A1.72 1.72 0 1149.19 26a1.744 1.744 0 011.76-1.72zm12.3 0A1.72 1.72 0 1161.5 26a1.733 1.733 0 011.75-1.72zM1.75 36.41A1.73 1.73 0 110 38.14a1.735 1.735 0 011.75-1.73zm12.3 0a1.73 1.73 0 11-1.77 1.73 1.744 1.744 0 011.77-1.73zm12.29 0a1.73 1.73 0 11-1.75 1.73 1.735 1.735 0 011.75-1.73zm12.32 0a1.73 1.73 0 11-1.75 1.73 1.741 1.741 0 011.75-1.73zm12.29 0a1.73 1.73 0 11-1.76 1.73 1.746 1.746 0 011.76-1.73zm12.3 0a1.73 1.73 0 11-1.75 1.73 1.735 1.735 0 011.75-1.73zM1.75 48.53A1.735 1.735 0 110 50.27a1.743 1.743 0 011.75-1.74zm12.3 0a1.735 1.735 0 11-1.77 1.74 1.752 1.752 0 011.77-1.74zm12.29 0a1.735 1.735 0 11-1.75 1.74 1.743 1.743 0 011.75-1.74zm12.32 0a1.735 1.735 0 11-1.75 1.74 1.75 1.75 0 011.75-1.74zm12.29 0a1.735 1.735 0 11-1.76 1.74 1.754 1.754 0 011.76-1.74zm12.3 0a1.735 1.735 0 11-1.75 1.74 1.743 1.743 0 011.75-1.74z" fill="#fe3e57" fill-rule="evenodd"/></svg>