<?xml version="1.0" encoding="utf-8"?><svg viewBox="0 0 512 512" xmlns="http://www.w3.org/2000/svg" xmlns:xlink="http://www.w3.org/1999/xlink"><style>:root>svg{display:none}:root>svg:target{display:block}</style><svg viewBox="0 0 22 9" id="arrow-dark" xmlns="http://www.w3.org/2000/svg"><path d="M603.3 2616.47h16.948l-.1 2.86a.279.279 0 0 0-.084.2.3.3 0 0 0 .084.21l.172.17a.276.276 0 0 0 .408 0l4.192-4.21a.283.283 0 0 0 .084-.2.307.307 0 0 0-.084-.21l-4.192-4.21a.3.3 0 0 0-.408 0l-.172.17a.3.3 0 0 0-.084.21.3.3 0 0 0 .084.2l.113 2.86h-16.969a.3.3 0 0 0-.292.3v1.37a.288.288 0 0 0 .3.28Z" transform="translate(-603 -2611)" style="fill:#436372;fill-rule:evenodd"/></svg><svg viewBox="0 0 22 20" id="cart" xmlns="http://www.w3.org/2000/svg"><path d="M17.44 20a2.724 2.724 0 1 1 2.74-2.724A2.738 2.738 0 0 1 17.44 20zm0-3.814a1.09 1.09 0 1 0 1.09 1.09 1.094 1.094 0 0 0-1.09-1.093zm1.75-2.806H6.38a.823.823 0 0 1-.8-.628L2.9 1.637H.84a.817.817 0 1 1 0-1.634h2.71a.824.824 0 0 1 .8.627l.74 3.078h16.1a.818.818 0 0 1 .8 1.014l-2 8.038a.822.822 0 0 1-.8.617zM7.03 11.745h11.52l1.59-6.4H5.49zM7.48 20a2.724 2.724 0 1 1 2.74-2.724A2.738 2.738 0 0 1 7.48 20zm0-3.814a1.09 1.09 0 1 0 1.09 1.09 1.094 1.094 0 0 0-1.09-1.093z" fill="#29282d" fill-rule="evenodd"/></svg><svg viewBox="0 0 20 20" id="date" xmlns="http://www.w3.org/2000/svg"><path d="M965.9 6011.26a.832.832 0 0 0-.387 1.11 8.318 8.318 0 1 1-2.335-2.91.831.831 0 1 0 1.037-1.3A10 10 0 1 0 968 6016a9.9 9.9 0 0 0-.992-4.35.83.83 0 0 0-1.113-.39Zm-7.9-1.93a.839.839 0 0 0-.833.84v5.83a.831.831 0 0 0 .833.83h4.167a.83.83 0 1 0 0-1.66h-3.334v-5a.839.839 0 0 0-.833-.84Zm0 0" transform="translate(-948 -6006)" style="fill:#8d8d8d;fill-rule:evenodd"/></svg><svg viewBox="0 0 320 512" id="facebook" xmlns="http://www.w3.org/2000/svg"><!--! Font Awesome Pro 6.4.0 by @fontawesome - https://fontawesome.com License - https://fontawesome.com/license (Commercial License) Copyright 2023 Fonticons, Inc.--><path d="m279.14 288 14.22-92.66h-88.91v-60.13c0-25.35 12.42-50.06 52.24-50.06h40.42V6.26S260.43 0 225.36 0c-73.22 0-121.08 44.38-121.08 124.72v70.62H22.89V288h81.39v224h100.17V288z"/></svg><svg viewBox="0 0 20 20" id="favorite" xmlns="http://www.w3.org/2000/svg"><path d="M19.75 4.589A6.683 6.683 0 0 0 15.58.218c-1.71-.595-3.75 0-5.58 1.611C8.17.26 6.12-.293 4.42.26A6.884 6.884 0 0 0 .25 4.631c-.47 1.57-.51 4.117 1.95 7.215 1.11 1.4 2.82 3.4 4.22 4.965 2.68 3.014 3.11 3.183 3.49 3.183h.17c.39 0 .77-.168 3.45-3.224a224.86 224.86 0 0 0 4.22-4.966c2.47-3.098 2.47-5.645 2-7.215zm-3.28 6.2c-1.96 2.462-5.32 6.324-6.47 7.385-1.15-1.061-4.52-4.924-6.48-7.385-1.61-1.994-2.21-3.947-1.7-5.687a4.986 4.986 0 0 1 3.11-3.225c1.23-.467 2.9.169 4.43 1.655a.84.84 0 0 0 1.06.126.447.447 0 0 0 .22-.17c1.53-1.443 3.19-2.079 4.42-1.655a5.168 5.168 0 0 1 3.11 3.268c.51 1.699-.08 3.689-1.7 5.683z" fill="#29282d" fill-rule="evenodd"/></svg><svg viewBox="0 0 448 512" id="linkedin" xmlns="http://www.w3.org/2000/svg"><!--! Font Awesome Pro 6.4.0 by @fontawesome - https://fontawesome.com License - https://fontawesome.com/license (Commercial License) Copyright 2023 Fonticons, Inc.--><path d="M100.28 448H7.4V148.9h92.88zM53.79 108.1C24.09 108.1 0 83.5 0 53.8a53.79 53.79 0 0 1 107.58 0c0 29.7-24.1 54.3-53.79 54.3zM447.9 448h-92.68V302.4c0-34.7-.7-79.2-48.29-79.2-48.29 0-55.69 37.7-55.69 76.7V448h-92.78V148.9h89.08v40.8h1.3c12.4-23.5 42.69-48.3 87.88-48.3 94 0 111.28 61.9 111.28 142.3V448z"/></svg><svg viewBox="0 0 384 512" id="pinterest" xmlns="http://www.w3.org/2000/svg"><!--! Font Awesome Pro 6.4.0 by @fontawesome - https://fontawesome.com License - https://fontawesome.com/license (Commercial License) Copyright 2023 Fonticons, Inc.--><path d="M204 6.5C101.4 6.5 0 74.9 0 185.6 0 256 39.6 296 63.6 296c9.9 0 15.6-27.6 15.6-35.4 0-9.3-23.7-29.1-23.7-67.8 0-80.4 61.2-137.4 140.4-137.4 68.1 0 118.5 38.7 118.5 109.8 0 53.1-21.3 152.7-90.3 152.7-24.9 0-46.2-18-46.2-43.8 0-37.8 26.4-74.4 26.4-113.4 0-66.2-93.9-54.2-93.9 25.8 0 16.8 2.1 35.4 9.6 50.7-13.8 59.4-42 147.9-42 209.1 0 18.9 2.7 37.5 4.5 56.4 3.4 3.8 1.7 3.4 6.9 1.5 50.4-69 48.6-82.5 71.4-172.8 12.3 23.4 44.1 36 69.3 36 106.2 0 153.9-103.5 153.9-196.8C384 71.3 298.2 6.5 204 6.5z"/></svg><svg viewBox="0 0 130 130" id="play_btn" xmlns="http://www.w3.org/2000/svg"><path fill-rule="evenodd" opacity=".2" fill="#FE3E57" d="M65 0c35.898 0 65 29.101 65 65 0 35.898-29.102 65-65 65-35.899 0-65-29.102-65-65C0 29.101 29.101 0 65 0Z"/><path fill-rule="evenodd" opacity=".6" fill="#FE3E57" d="M65 10c30.376 0 55 24.624 55 55s-24.624 55-55 55-55-24.624-55-55 24.624-55 55-55Z"/><path fill-rule="evenodd" fill="#FE3E57" d="M65 20c24.853 0 45 20.147 45 45s-20.147 45-45 45-45-20.147-45-45 20.147-45 45-45Z"/><path fill-rule="evenodd" fill="#FFF" d="m71.816 63.142-11.824-7.606c-.546-.351-1.096-.537-1.554-.537-.884 0-1.431.667-1.431 1.783v16.437c0 1.115.547 1.78 1.429 1.78.458 0 .999-.186 1.546-.539l11.83-7.605c.76-.489 1.182-1.149 1.182-1.857 0-.707-.417-1.367-1.178-1.856"/></svg><svg viewBox="0 0 20.03 20" id="search" xmlns="http://www.w3.org/2000/svg"><path d="m19.89 18.7-5.81-5.81a7.944 7.944 0 1 0-1.18 1.178l5.81 5.81a.417.417 0 0 0 .59 0l.59-.589a.421.421 0 0 0 0-.589zM7.93 14.167a6.25 6.25 0 1 1 6.25-6.25 6.254 6.254 0 0 1-6.25 6.246z" fill="#29282d" fill-rule="evenodd"/></svg><svg viewBox="0 0 512 512" id="twitter" xmlns="http://www.w3.org/2000/svg"><!--! Font Awesome Pro 6.4.0 by @fontawesome - https://fontawesome.com License - https://fontawesome.com/license (Commercial License) Copyright 2023 Fonticons, Inc.--><path d="M459.37 151.716c.325 4.548.325 9.097.325 13.645 0 138.72-105.583 298.558-298.558 298.558-59.452 0-114.68-17.219-161.137-47.106 8.447.974 16.568 1.299 25.34 1.299 49.055 0 94.213-16.568 130.274-44.832-46.132-.975-84.792-31.188-98.112-72.772 6.498.974 12.995 1.624 19.818 1.624 9.421 0 18.843-1.3 27.614-3.573-48.081-9.747-84.143-51.98-84.143-102.985v-1.299c13.969 7.797 30.214 12.67 47.431 13.319-28.264-18.843-46.781-51.005-46.781-87.391 0-19.492 5.197-37.36 14.294-52.954 51.655 63.675 129.3 105.258 216.365 109.807-1.624-7.797-2.599-15.918-2.599-24.04 0-57.828 46.782-104.934 104.934-104.934 30.213 0 57.502 12.67 76.67 33.137 23.715-4.548 46.456-13.32 66.599-25.34-7.798 24.366-24.366 44.833-46.132 57.827 21.117-2.273 41.584-8.122 60.426-16.243-14.292 20.791-32.161 39.308-52.628 54.253z"/></svg><svg viewBox="0 0 20 20" id="user" xmlns="http://www.w3.org/2000/svg"><path d="M17.07 12.928a9.923 9.923 0 0 0-3.8-2.383 5.78 5.78 0 1 0-6.54 0A10.018 10.018 0 0 0 0 20h1.56a8.44 8.44 0 0 1 16.88 0H20a9.931 9.931 0 0 0-2.93-7.072zM5.78 5.78A4.22 4.22 0 1 1 10 10a4.222 4.222 0 0 1-4.22-4.22z" fill="#29282d" fill-rule="evenodd"/></svg><svg viewBox="0 0 20 20" id="user-grey" xmlns="http://www.w3.org/2000/svg"><path d="M432.071 6018.93a9.992 9.992 0 0 0-3.8-2.39 5.781 5.781 0 1 0-6.542 0A10.038 10.038 0 0 0 415 6026h1.562a8.438 8.438 0 1 1 16.875 0H435a9.935 9.935 0 0 0-2.929-7.07Zm-11.29-7.15A4.219 4.219 0 1 1 425 6016a4.223 4.223 0 0 1-4.219-4.22Z" transform="translate(-415 -6006)" style="fill:#8d8d8d;fill-rule:evenodd"/></svg></svg>