<svg xmlns="http://www.w3.org/2000/svg" width="60" height="60"><path fill-rule="evenodd" fill="#FE3E57" d="M0 0h60v60H0V0z"/><path fill-rule="evenodd" fill="#FFF" d="M42.495 32.209l-4.149 4.765a3.36 3.36 0 01-.652.579l-.017.01c-.676.422-1.525.636-2.526.636h-6.156c-.424 0-.852.023-1.274.072l-.696.076.304.289a.492.492 0 01.01.71l-3.493 3.5a.521.521 0 01-.719.013l-5.966-5.546a.489.489 0 01-.015-.708l3.527-3.576a.525.525 0 01.366-.153h.004c.133 0 .262.051.358.142l.725.688a7.264 7.264 0 011.322-1.387c1.484-1.182 3.24-1.545 5.078-1.048.705.19 1.449.286 2.212.286h4.046c.589 0 1.109.227 1.464.64.073.084.139.175.196.271l2.89-2.792a2.107 2.107 0 011.598-.594 2.387 2.387 0 011.452.594c.776.7.821 1.717.111 2.533zm-21.44 1.873l-2.816 2.854 5.227 4.86 2.785-2.79-5.196-4.924zm20.636-3.671c-.416-.375-1.16-.491-1.635-.027l-3.329 3.217c-.015.48-.184.93-.482 1.272-.358.411-.882.638-1.477.638h-3.522a.505.505 0 01-.512-.5c0-.275.229-.499.512-.499h3.522c.298 0 .532-.096.697-.286.153-.174.24-.427.24-.693 0-.362-.194-.977-.921-.977h-4.046a9.551 9.551 0 01-2.485-.323c-1.526-.413-2.925-.123-4.158.86a6.274 6.274 0 00-1.225 1.316l3.205 3.037 1.53-.168a12.4 12.4 0 011.39-.078h6.156c.798 0 1.46-.159 1.967-.472.166-.114.317-.249.449-.4l4.148-4.766c.48-.55.191-.958-.024-1.151zm-12.416 5.088a.51.51 0 01-.615-.372l-.005-.021a.499.499 0 01.382-.599.511.511 0 01.614.372l.005.02a.499.499 0 01-.381.6zm9.04-6.966h-4.983c-.272 0-.523-.085-.727-.232a1.237 1.237 0 01-.726.232h-4.983c-.272 0-.523-.085-.727-.232a1.242 1.242 0 01-.727.232h-4.983c-.682 0-1.238-.542-1.238-1.209v-2.268a2.61 2.61 0 011.459-2.341 2.826 2.826 0 01-.679-1.837c0-1.587 1.323-2.88 2.949-2.88 1.627 0 2.95 1.293 2.95 2.88 0 .698-.255 1.338-.678 1.836.377.189.701.462.947.793.245-.331.569-.604.947-.792a2.826 2.826 0 01-.679-1.837c0-1.587 1.323-2.88 2.95-2.88 1.626 0 2.95 1.293 2.95 2.88 0 .698-.255 1.338-.679 1.836.378.189.701.462.947.793.246-.331.569-.604.947-.793a2.822 2.822 0 01-.679-1.836c0-1.587 1.324-2.88 2.95-2.88 1.627 0 2.95 1.293 2.95 2.88 0 .698-.255 1.338-.679 1.836a2.611 2.611 0 011.459 2.341v2.269c0 .667-.556 1.209-1.238 1.209zm-15.364-9.536c-1.063 0-1.927.844-1.927 1.881 0 1.038.864 1.882 1.927 1.882 1.062 0 1.927-.844 1.927-1.882 0-1.037-.865-1.881-1.927-1.881zm2.707 6.058c0-.802-.584-1.471-1.379-1.606a3 3 0 01-2.657 0 1.634 1.634 0 00-1.378 1.606v2.269c0 .116.096.211.215.211h4.983a.214.214 0 00.216-.211v-2.269zm3.729-6.058c-1.063 0-1.927.844-1.927 1.881 0 1.038.864 1.882 1.927 1.882 1.063 0 1.927-.844 1.927-1.882 0-1.037-.864-1.881-1.927-1.881zm2.707 6.058c0-.802-.584-1.471-1.379-1.606a2.993 2.993 0 01-2.656 0 1.634 1.634 0 00-1.379 1.606v2.269c0 .116.097.211.216.211h4.983a.214.214 0 00.215-.211v-2.269zm3.729-6.058c-1.062 0-1.927.844-1.927 1.881 0 1.038.865 1.882 1.927 1.882 1.063 0 1.927-.844 1.927-1.882 0-1.037-.864-1.881-1.927-1.881zm2.707 6.058c0-.802-.584-1.471-1.378-1.606a3 3 0 01-2.657 0 1.632 1.632 0 00-1.378 1.606v2.269c0 .116.096.211.215.211h4.983a.214.214 0 00.215-.211v-2.269z"/></svg>